<?xml version="1.0" encoding="UTF-8" standalone="no"?>
<!-- Created with Inkscape (http://www.inkscape.org/) -->

<svg
   width="32"
   height="32"
   id="svg2424"
   sodipodi:version="0.32"
   inkscape:version="1.4 (e7c3feb100, 2024-10-09)"
   version="1.0"
   sodipodi:docname="archlinux-icon-crystal-32.svg"
   inkscape:output_extension="org.inkscape.output.svg.inkscape"
   inkscape:export-filename="/home/thayer/archlinux-logo-contest/archer-full-detail.png"
   inkscape:export-xdpi="90"
   inkscape:export-ydpi="90"
   xmlns:inkscape="http://www.inkscape.org/namespaces/inkscape"
   xmlns:sodipodi="http://sodipodi.sourceforge.net/DTD/sodipodi-0.dtd"
   xmlns:xlink="http://www.w3.org/1999/xlink"
   xmlns="http://www.w3.org/2000/svg"
   xmlns:svg="http://www.w3.org/2000/svg"
   xmlns:rdf="http://www.w3.org/1999/02/22-rdf-syntax-ns#"
   xmlns:cc="http://creativecommons.org/ns#"
   xmlns:dc="http://purl.org/dc/elements/1.1/">
  <defs
     id="defs2426">
    <linearGradient
       inkscape:collect="always"
       xlink:href="#path1082_2_"
       id="linearGradient2190"
       gradientUnits="userSpaceOnUse"
       gradientTransform="matrix(-0.3937741,0,0,0.393752,978.34967,416.9815)"
       x1="541.33502"
       y1="104.50665"
       x2="606.91248"
       y2="303.14029" />
    <linearGradient
       gradientUnits="userSpaceOnUse"
       id="path1082_2_"
       y2="129.3468"
       x2="112.49853"
       y1="6.1372099"
       x1="112.49854"
       gradientTransform="translate(287,-83)">
      <stop
         id="stop193"
         offset="0"
         style="stop-color:#ffffff;stop-opacity:0" />
      <stop
         id="stop195"
         offset="1"
         style="stop-color:#ffffff;stop-opacity:0.27450982;" />
      <midPointStop
         id="midPointStop197"
         style="stop-color:#FFFFFF"
         offset="0" />
      <midPointStop
         id="midPointStop199"
         style="stop-color:#FFFFFF"
         offset="0.5" />
      <midPointStop
         id="midPointStop201"
         style="stop-color:#000000"
         offset="1" />
    </linearGradient>
    <linearGradient
       id="linearGradient3388">
      <stop
         style="stop-color:#000000;stop-opacity:0;"
         offset="0"
         id="stop3390" />
      <stop
         style="stop-color:#000000;stop-opacity:0.37113401;"
         offset="1"
         id="stop3392" />
    </linearGradient>
    <linearGradient
       inkscape:collect="always"
       id="linearGradient4346">
      <stop
         style="stop-color:#00bdec;stop-opacity:1"
         offset="0"
         id="stop4348" />
      <stop
         style="stop-color:#40bfde;stop-opacity:1"
         offset="1"
         id="stop4350" />
    </linearGradient>
    <linearGradient
       inkscape:collect="always"
       xlink:href="#linearGradient4346"
       id="linearGradient4352"
       x1="400.6142"
       y1="634.15063"
       x2="616.48553"
       y2="666.97791"
       gradientUnits="userSpaceOnUse" />
    <linearGradient
       inkscape:collect="always"
       id="linearGradient5323">
      <stop
         style="stop-color:#6e6e6e;stop-opacity:1"
         offset="0"
         id="stop5325" />
      <stop
         style="stop-color:#4d4d4d;stop-opacity:1"
         offset="1"
         id="stop5327" />
    </linearGradient>
    <linearGradient
       inkscape:collect="always"
       xlink:href="#linearGradient5323"
       id="linearGradient5329"
       x1="291.83591"
       y1="238.08237"
       x2="650.81366"
       y2="348.96875"
       gradientUnits="userSpaceOnUse" />
    <linearGradient
       inkscape:collect="always"
       xlink:href="#path1082_2_"
       id="linearGradient2216"
       gradientUnits="userSpaceOnUse"
       gradientTransform="matrix(-0.3937741,0,0,0.393752,978.34967,416.9815)"
       x1="541.33502"
       y1="104.50665"
       x2="606.91248"
       y2="303.14029" />
    <filter
       style="color-interpolation-filters:sRGB;"
       inkscape:label="Colorize"
       id="filter219"
       x="0"
       y="0"
       width="1"
       height="1">
      <feComposite
         in2="SourceGraphic"
         operator="arithmetic"
         k1="0"
         k2="1"
         result="composite1"
         id="feComposite218" />
      <feColorMatrix
         in="composite1"
         values="1"
         type="saturate"
         result="colormatrix1"
         id="feColorMatrix218" />
      <feFlood
         flood-opacity="1"
         flood-color="rgb(229,229,229)"
         result="flood1"
         id="feFlood218" />
      <feBlend
         in="flood1"
         in2="colormatrix1"
         mode="normal"
         result="blend1"
         id="feBlend218" />
      <feBlend
         in2="blend1"
         mode="normal"
         result="blend2"
         id="feBlend219" />
      <feColorMatrix
         in="blend2"
         values="1"
         type="saturate"
         result="colormatrix2"
         id="feColorMatrix219" />
      <feComposite
         in="colormatrix2"
         in2="SourceGraphic"
         operator="in"
         k2="1"
         result="composite2"
         id="feComposite219" />
    </filter>
    <filter
       style="color-interpolation-filters:sRGB;"
       inkscape:label="Colorize"
       id="filter221"
       x="0"
       y="0"
       width="1"
       height="1">
      <feComposite
         in2="SourceGraphic"
         operator="arithmetic"
         k1="0"
         k2="1"
         result="composite1"
         id="feComposite220" />
      <feColorMatrix
         in="composite1"
         values="1"
         type="saturate"
         result="colormatrix1"
         id="feColorMatrix220" />
      <feFlood
         flood-opacity="1"
         flood-color="rgb(229,229,229)"
         result="flood1"
         id="feFlood220" />
      <feBlend
         in="flood1"
         in2="colormatrix1"
         mode="normal"
         result="blend1"
         id="feBlend220" />
      <feBlend
         in2="blend1"
         mode="normal"
         result="blend2"
         id="feBlend221" />
      <feColorMatrix
         in="blend2"
         values="1"
         type="saturate"
         result="colormatrix2"
         id="feColorMatrix221" />
      <feComposite
         in="colormatrix2"
         in2="SourceGraphic"
         operator="in"
         k2="1"
         result="composite2"
         id="feComposite221" />
    </filter>
    <filter
       style="color-interpolation-filters:sRGB;"
       inkscape:label="Colorize"
       id="filter223"
       x="0"
       y="0"
       width="1"
       height="1">
      <feComposite
         in2="SourceGraphic"
         operator="arithmetic"
         k1="0"
         k2="1"
         result="composite1"
         id="feComposite222" />
      <feColorMatrix
         in="composite1"
         values="1"
         type="saturate"
         result="colormatrix1"
         id="feColorMatrix222" />
      <feFlood
         flood-opacity="1"
         flood-color="rgb(229,229,229)"
         result="flood1"
         id="feFlood222" />
      <feBlend
         in="flood1"
         in2="colormatrix1"
         mode="normal"
         result="blend1"
         id="feBlend222" />
      <feBlend
         in2="blend1"
         mode="normal"
         result="blend2"
         id="feBlend223" />
      <feColorMatrix
         in="blend2"
         values="1"
         type="saturate"
         result="colormatrix2"
         id="feColorMatrix223" />
      <feComposite
         in="colormatrix2"
         in2="SourceGraphic"
         operator="in"
         k2="1"
         result="composite2"
         id="feComposite223" />
    </filter>
  </defs>
  <sodipodi:namedview
     id="base"
     pagecolor="#ffffff"
     bordercolor="#666666"
     borderopacity="1.0"
     gridtolerance="10000"
     guidetolerance="10"
     objecttolerance="10"
     inkscape:pageopacity="0.0"
     inkscape:pageshadow="2"
     inkscape:zoom="8"
     inkscape:cx="7"
     inkscape:cy="30.25"
     inkscape:document-units="px"
     inkscape:current-layer="g2210"
     inkscape:window-width="1918"
     inkscape:window-height="1055"
     inkscape:window-x="1366"
     inkscape:window-y="23"
     inkscape:showpageshadow="2"
     inkscape:pagecheckerboard="0"
     inkscape:deskcolor="#d1d1d1"
     inkscape:window-maximized="0" />
  <metadata
     id="metadata2429">
    <rdf:RDF>
      <cc:Work
         rdf:about="">
        <dc:format>image/svg+xml</dc:format>
        <dc:type
           rdf:resource="http://purl.org/dc/dcmitype/StillImage" />
      </cc:Work>
    </rdf:RDF>
  </metadata>
  <g
     inkscape:label="Layer 1"
     inkscape:groupmode="layer"
     id="layer1"
     transform="translate(-309.51781,-259.60123)">
    <g
       id="g2424"
       transform="matrix(1.3473684,0,0,1.3473684,-632.88236,-513.34366)">
      <g
         id="g2210"
         transform="matrix(0.125,0,0,0.125,615.71887,519.21715)">
        <path
           style="fill:#1793d1;fill-opacity:1;fill-rule:evenodd;stroke:none;stroke-width:1;stroke-linecap:round;stroke-linejoin:round;stroke-miterlimit:10;stroke-dasharray:none;stroke-opacity:1;filter:url(#filter219)"
           d="M 764.75015,435.62318 C 756.29306,456.35771 752.13752,468.47084 742.72166,488.58901 C 748.49477,494.7085 754.61058,503.27765 766.11856,511.3263 C 756.19466,510.64216 744.33307,503.09582 738.0262,497.79178 C 725.9757,522.93702 708.06309,556.78261 669.75015,625.62318 C 699.85528,608.24296 723.19329,597.52272 744.94302,593.4308 C 744.0125,589.41975 743.51542,585.06076 743.55142,580.53529 L 743.57461,579.58436 C 744.05243,560.29195 754.09092,545.45692 765.9794,546.46424 C 777.86787,547.47156 787.12249,563.93331 786.64468,583.22572 C 786.55468,586.85963 786.1322,590.35133 785.41543,593.59315 C 806.9311,597.8037 830.04901,608.47618 859.75015,625.62318 C 853.89286,614.83948 848.64665,607.08273 843.65396,597.82475 C 835.78967,591.72939 829.54943,586.24762 810.85855,573.25257 C 822.35934,576.24095 829.13312,577.24831 835.55168,581.10212 C 784.78965,486.59209 782.15758,476.47346 764.75015,435.62318 z "
           id="path2518"
           sodipodi:nodetypes="ccccccccsscccccc" />
        <path
           style="fill:#ffffff;fill-opacity:0.16568047;fill-rule:evenodd;stroke:none;stroke-width:36.09999847;stroke-linecap:butt;stroke-linejoin:round;stroke-miterlimit:10;stroke-opacity:1;filter:url(#filter221)"
           d="M 818.22607,548.55277 C 777.04464,492.65769 767.49922,447.60796 765.0814,436.85262 C 787.04877,487.52122 786.89873,488.14257 818.22607,548.55277 z "
           id="path2522"
           sodipodi:nodetypes="ccc" />
        <path
           style="fill:url(#linearGradient2190);fill-opacity:1;fill-rule:evenodd;stroke:none;stroke-width:0.71416688;stroke-linecap:round;stroke-linejoin:round;stroke-miterlimit:10;stroke-dasharray:none;stroke-opacity:1;filter:url(#filter223)"
           d="M 765.12124,436.55089 C 764.08134,439.10743 762.92886,441.60974 761.96694,443.97277 C 760.88579,446.62862 759.83447,449.09447 758.81264,451.58019 C 757.79089,454.06594 756.84782,456.60772 755.84389,459.00206 C 754.8399,461.39652 753.90279,463.67099 752.87514,466.05285 C 751.84756,468.43462 750.81358,470.84129 749.72084,473.28917 C 749.49915,473.80943 749.20549,474.24651 748.97866,474.77355 C 748.08785,476.75518 747.15745,478.81677 746.19545,480.8966 C 745.0662,483.42371 743.97624,485.7132 742.67006,488.50402 C 748.44317,494.62351 754.54099,503.27763 766.04897,511.32628 C 756.12507,510.64214 744.33826,503.0854 738.03139,497.78136 C 736.49447,500.90008 734.97516,504.30127 733.20717,507.80089 C 732.14161,509.91015 730.84337,512.20996 729.68178,514.48058 C 728.92541,515.97954 728.44377,517.17458 727.64077,518.74816 C 727.60017,518.82696 727.49593,518.85471 727.45522,518.93371 C 726.43493,520.91336 723.18032,527.06417 719.8478,533.40636 C 717.3486,538.17539 714.995,542.75074 712.05483,548.25011 C 736.11521,534.67716 762.15262,515.27934 809.28139,532.10753 C 806.91431,527.62434 804.83098,523.44317 802.78725,519.49035 C 800.74355,515.53741 798.7984,511.85803 797.0353,508.35753 C 795.27234,504.8571 793.55041,501.46406 792.02553,498.338 C 790.50067,495.21201 789.08721,492.26151 787.75795,489.43175 C 786.42863,486.60205 785.22328,484.06467 784.04702,481.45324 C 782.87068,478.84184 781.77313,476.31688 780.70717,473.84582 C 779.6411,471.37462 778.73656,468.83267 777.73842,466.42394 C 777.17555,465.06569 776.62037,463.69979 776.0685,462.34191 C 775.65849,461.38151 775.17963,460.1543 774.76967,459.18761 C 771.81226,452.21398 768.75876,445.101 765.12124,436.55089 z "
           id="path2520" />
      </g>
    </g>
  </g>
</svg>
