<?xml version="1.0" encoding="UTF-8" standalone="no"?>
<svg
   width="22"
   height="22"
   version="1.1"
   id="svg1"
   sodipodi:docname="battery-090.svg"
   inkscape:version="1.4 (e7c3feb100, 2024-10-09)"
   xmlns:inkscape="http://www.inkscape.org/namespaces/inkscape"
   xmlns:sodipodi="http://sodipodi.sourceforge.net/DTD/sodipodi-0.dtd"
   xmlns="http://www.w3.org/2000/svg"
   xmlns:svg="http://www.w3.org/2000/svg">
  <sodipodi:namedview
     id="namedview1"
     pagecolor="#ffffff"
     bordercolor="#000000"
     borderopacity="0.25"
     inkscape:showpageshadow="2"
     inkscape:pageopacity="0.0"
     inkscape:pagecheckerboard="0"
     inkscape:deskcolor="#d1d1d1"
     inkscape:zoom="25.318182"
     inkscape:cx="10.980251"
     inkscape:cy="10.980251"
     inkscape:window-width="1918"
     inkscape:window-height="1055"
     inkscape:window-x="1366"
     inkscape:window-y="23"
     inkscape:window-maximized="1"
     inkscape:current-layer="svg1" />
  <defs
     id="defs1">
    <style
       id="current-color-scheme"
       type="text/css">.ColorScheme-Text {
                color:#f2f2f2;
            }</style>
  </defs>
  <path
     class="ColorScheme-Text"
     d="m3 5c-1.662 0-3 1.338-3 3v6c0 1.662 1.338 3 3 3h14c1.662 0 3-1.338 3-3v-6c0-1.662-1.338-3-3-3zm0 1h14c1.108 0 2 0.892 2 2v6c0 1.108-0.892 2-2 2h-14c-1.108 0-2-0.892-2-2v-6c0-1.108 0.892-2 2-2zm18 3v4c0.554 0 1-0.446 1-1v-2c0-0.554-0.446-1-1-1z"
     fill="currentColor"
     opacity=".5"
     id="path1" />
  <rect
     class="ColorScheme-Text"
     x="2"
     y="7"
     width="14.4"
     height="8"
     rx="0.95999998"
     ry="1"
     fill="currentColor"
     id="rect1"
     style="stroke-width:0.979796" />
</svg>
